<?xml version="1.0" standalone="no"?>
<!DOCTYPE svg PUBLIC "-//W3C//DTD SVG 20010904//EN"
 "http://www.w3.org/TR/2001/REC-SVG-20010904/DTD/svg10.dtd">
<svg version="1.0" xmlns="http://www.w3.org/2000/svg"
 width="711.000000pt" height="711.000000pt" viewBox="0 0 711.000000 711.000000"
 preserveAspectRatio="xMidYMid meet">
<metadata>
Created by potrace 1.14, written by Peter Selinger 2001-2017
</metadata>
<g transform="translate(0.000000,711.000000) scale(0.100000,-0.100000)"
fill="#000000" stroke="none">
<path d="M1917 7034 c-1 -1 -31 -5 -66 -8 -36 -4 -67 -9 -70 -10 -3 -2 -23 -7
-44 -10 -65 -10 -190 -64 -269 -116 -218 -143 -341 -351 -375 -635 -8 -69 -10
-5435 -1 -5515 23 -223 67 -350 159 -453 99 -113 276 -185 523 -214 122 -14
619 -5 646 12 3 2 30 6 60 10 125 13 219 27 276 41 l60 16 0 1279 c-1 846 2
1279 9 1280 6 0 519 2 1140 4 622 1 1142 5 1157 8 236 45 399 219 453 487 15
74 14 353 -1 440 -18 104 -74 273 -123 372 l-36 73 -1302 3 c-1032 2 -1303 5
-1304 15 -1 6 -2 353 -3 769 -1 497 2 759 9 761 6 2 593 4 1305 4 712 0 1318
3 1345 7 88 12 138 28 209 64 157 82 256 237 294 465 14 83 7 348 -12 437 -20
91 -73 259 -87 274 -5 6 -9 15 -9 22 0 7 -14 36 -31 66 l-31 54 -1939 0
c-1067 0 -1941 -1 -1942 -2z"/>
</g>
</svg>
